<?xml version="1.0" encoding="UTF-8" standalone="no"?>
<!-- Generator: Adobe Illustrator 18.1.0, SVG Export Plug-In . SVG Version: 6.00 Build 0)  -->

<svg
   xmlns:dc="http://purl.org/dc/elements/1.1/"
   xmlns:cc="http://creativecommons.org/ns#"
   xmlns:rdf="http://www.w3.org/1999/02/22-rdf-syntax-ns#"
   xmlns:svg="http://www.w3.org/2000/svg"
   xmlns="http://www.w3.org/2000/svg"
   xmlns:sodipodi="http://sodipodi.sourceforge.net/DTD/sodipodi-0.dtd"
   xmlns:inkscape="http://www.inkscape.org/namespaces/inkscape"
   version="1.1"
   id="Image"
   x="0px"
   y="0px"
   viewBox="0 0 26 22"
   enable-background="new 0 0 20 20"
   xml:space="preserve"
   sodipodi:docname="image.svg"
   width="26"
   height="22"
   inkscape:version="0.92.4 (5da689c313, 2019-01-14)"><metadata
   id="metadata9"><rdf:RDF><cc:Work
       rdf:about=""><dc:format>image/svg+xml</dc:format><dc:type
         rdf:resource="http://purl.org/dc/dcmitype/StillImage" /><dc:title></dc:title></cc:Work></rdf:RDF></metadata><defs
   id="defs7" /><sodipodi:namedview
   pagecolor="#ffffff"
   bordercolor="#666666"
   borderopacity="1"
   objecttolerance="10"
   gridtolerance="10"
   guidetolerance="10"
   inkscape:pageopacity="0"
   inkscape:pageshadow="2"
   inkscape:window-width="1635"
   inkscape:window-height="937"
   id="namedview5"
   showgrid="false"
   fit-margin-top="3"
   fit-margin-left="3"
   fit-margin-right="3"
   fit-margin-bottom="3"
   inkscape:zoom="11.8"
   inkscape:cx="13"
   inkscape:cy="11"
   inkscape:window-x="0"
   inkscape:window-y="0"
   inkscape:window-maximized="0"
   inkscape:current-layer="Image" />
<path
   d="M 22,3 H 4 C 3.447,3 3,3.447 3,4 v 14 c 0,0.552 0.447,1 1,1 h 18 c 0.553,0 1,-0.448 1,-1 V 4 C 23,3.448 22.553,3 22,3 Z M 21,17 H 5 V 5 H 21 Z M 17.315,11.877 14.084,13.482 10.314,7.381 7,15 H 19 Z M 16.25,10 C 16.94,10 17.5,9.44 17.5,8.75 17.5,8.06 16.94,7.5 16.25,7.5 15.56,7.5 15,8.06 15,8.75 15,9.44 15.56,10 16.25,10 Z"
   id="path2"
   inkscape:connector-curvature="0"
   style="clip-rule:evenodd;fill-rule:evenodd;fill:#bfbfbf;fill-opacity:1" />
</svg>